Coordinates
version=1
nRows=30
nColumns=30
inDegrees=yes

Units are S.I. units (second, meters, Newtons, ...)
Angles are in degrees.

endheader
time	floatyaw	floatroll	floatpitch	floatx	floaty	floatz	pro_sup_l	deviation_l	flexion_l	cmc_flexion_l	cmc_abduction_l	mp_flexion_l	ip_flexion_l	2mcp_flexion_l	2mcp_abduction_l	2pm_flexion_l	2md_flexion_l	3mcp_flexion_l	3mcp_abduction_l	3pm_flexion_l	3md_flexion_l	4mcp_flexion_l	4mcp_abduction_l	4pm_flexion_l	4md_flexion_l	5mcp_flexion_l	5mcp_abduction_l	5pm_flexion_l	5md_flexion_l
-1.495000	3.029614	-4.103828	101.268469	-0.102920	-0.207731	-0.045174	85.781400	1.861063	0.473657	16.847630	1.321256	-22.589746	-35.685357	38.777642	8.181697	50.686806	33.800655	24.631491	4.574192	48.447779	30.067041	15.375432	-4.491368	61.768015	39.972045	9.213895	-9.038047	59.838706	40.165582
-1.485000	3.029614	-4.103828	101.268469	-0.102909	-0.207729	-0.045180	85.787222	1.869882	0.473090	16.845110	1.339049	-22.589639	-35.684367	38.775978	8.180657	50.701004	33.809749	24.625832	4.581347	48.460723	30.080323	15.356419	-4.475478	61.773025	39.982040	9.265785	-9.075025	59.863094	40.173806
-1.475000	3.029614	-4.103828	101.268469	-0.102901	-0.207733	-0.045188	85.795043	1.883810	0.466267	16.839588	1.334066	-22.598016	-35.688820	38.770153	8.176461	50.701580	33.809890	24.633600	4.585395	48.459513	30.083725	15.330331	-4.459827	61.770539	39.988655	9.312269	-9.118240	59.897245	40.186553
-1.465000	3.029614	-4.103828	101.268469	-0.102896	-0.207744	-0.045199	85.805420	1.903759	0.452387	16.831234	1.300013	-22.614917	-35.699513	38.767358	8.166083	50.689074	33.801046	24.655827	4.584801	48.441233	30.075822	15.300205	-4.445139	61.758284	39.991230	9.338875	-9.154285	59.935115	40.202981
-1.455000	3.029614	-4.103828	101.268469	-0.102893	-0.207759	-0.045212	85.818190	1.928718	0.433468	16.821624	1.240900	-22.636828	-35.715240	38.774608	8.148881	50.668263	33.786008	24.688028	4.579846	48.407369	30.058592	15.268348	-4.431180	61.736637	39.990767	9.339990	-9.174392	59.971960	40.222042
-1.445000	3.029614	-4.103828	101.268469	-0.102892	-0.207777	-0.045227	85.831122	1.954773	0.413412	16.813066	1.171473	-22.657767	-35.733079	38.795095	8.127266	50.647009	33.769921	24.721044	4.572721	48.365678	30.038207	15.236606	-4.417881	61.709597	39.989876	9.320791	-9.177925	60.005365	40.242426
-1.435000	3.029614	-4.103828	101.268469	-0.102890	-0.207797	-0.045240	85.839761	1.975608	0.396391	16.807209	1.112506	-22.671718	-35.749345	38.826198	8.105956	50.633620	33.758743	24.744156	4.566662	48.328995	30.023766	15.207278	-4.406302	61.684262	39.992035	9.293378	-9.171177	60.034418	40.262397
-1.425000	3.029614	-4.103828	101.268469	-0.102888	-0.207816	-0.045248	85.839178	1.984818	0.385214	16.803869	1.082069	-22.675196	-35.760856	38.860501	8.090069	50.633229	33.756786	24.749742	4.564458	48.310056	30.023518	15.183764	-4.398729	61.668606	40.000268	9.269358	-9.162442	60.058423	40.280012
-1.415000	3.029614	-4.103828	101.268469	-0.102885	-0.207836	-0.045248	85.826706	1.978989	0.380461	16.800980	1.087351	-22.668554	-35.765963	38.889540	8.083069	50.645115	33.764553	24.737069	4.567057	48.315014	30.040529	15.170132	-4.397787	61.668347	40.015772	9.253374	-9.156655	60.076454	40.293814
-1.405000	3.029614	-4.103828	101.268469	-0.102883	-0.207853	-0.045243	85.803737	1.959714	0.380860	16.795699	1.121711	-22.655449	-35.764894	38.908292	8.085655	50.663002	33.778351	24.712651	4.573073	48.340029	30.070723	15.169429	-4.404983	61.684389	40.037162	9.241549	-9.153062	60.088028	40.303551
-1.395000	3.029614	-4.103828	101.268469	-0.102882	-0.207866	-0.045234	85.775202	1.933179	0.384616	16.785820	1.168173	-22.640993	-35.759389	38.917668	8.095909	50.678316	33.792032	24.686709	4.579576	48.373230	30.104707	15.181534	-4.419453	61.712152	40.060806	9.225846	-9.147316	60.094302	40.310402
-1.385000	3.029614	-4.103828	101.268469	-0.102881	-0.207872	-0.045229	85.747025	1.907356	0.390749	16.770541	1.206912	-22.629704	-35.751898	38.923265	8.110216	50.684225	33.799771	24.667861	4.583785	48.400654	30.132244	15.202060	-4.437683	61.743255	40.082193	9.201335	-9.136264	60.098613	40.316414
-1.375000	3.029614	-4.103828	101.268469	-0.102881	-0.207870	-0.045231	85.723280	1.888398	0.399459	16.750322	1.222976	-22.624126	-35.744737	38.931219	8.124416	50.677994	33.798276	24.659192	4.584644	48.412653	30.146823	15.223438	-4.454568	61.768818	40.097664	9.171242	-9.121752	60.105409	40.323324
-1.365000	3.029614	-4.103828	101.268469	-0.102882	-0.207860	-0.045241	85.704953	1.878335	0.411324	16.726343	1.211277	-22.624362	-35.739416	38.944171	8.134945	50.660946	33.787546	24.657695	4.583264	48.407681	30.148105	15.237812	-4.465378	61.782866	40.105733	9.146288	-9.110582	60.117703	40.331314
-1.355000	3.029614	-4.103828	101.268469	-0.102884	-0.207847	-0.045259	85.690944	1.875257	0.426119	16.700205	1.177476	-22.628338	-35.736271	38.960020	8.139814	50.636944	33.770284	24.656877	4.582010	48.392242	30.141479	15.240099	-4.467630	61.784377	40.107492	9.138950	-9.110728	60.134642	40.338492
-1.345000	3.029614	-4.103828	101.268469	-0.102888	-0.207834	-0.045278	85.680250	1.875498	0.442345	16.674043	1.134791	-22.632638	-35.734445	38.973674	8.139139	50.610641	33.750597	24.650666	4.582918	48.377597	30.135355	15.229590	-4.461881	61.777249	40.106077	9.156427	-9.126496	60.151057	40.341588
-1.335000	3.029614	-4.103828	101.268469	-0.102891	-0.207824	-0.045294	85.673526	1.876229	0.457952	16.650535	1.097749	-22.633915	-35.732350	38.980062	8.134884	50.585984	33.732519	24.636338	4.586505	48.374796	30.137540	15.209450	-4.451059	61.768296	40.105466	9.196243	-9.155636	60.159726	40.337682
-1.325000	3.029614	-4.103828	101.268469	-0.102893	-0.207819	-0.045303	85.672804	1.876842	0.471748	16.632226	1.075460	-22.630572	-35.728534	38.976450	8.129905	50.565127	33.718779	24.614992	4.591622	48.389954	30.152149	15.184569	-4.438771	61.764108	40.109021	9.246625	-9.190083	60.155179	40.326082
-1.315000	3.029614	-4.103828	101.268469	-0.102893	-0.207816	-0.045307	85.679565	1.878444	0.484305	16.620282	1.068017	-22.623758	-35.722499	38.963183	8.126644	50.548087	33.710198	24.589736	4.596303	48.421693	30.178242	15.159026	-4.427608	61.768208	40.118323	9.291590	-9.219915	60.136838	40.309156
-1.305000	3.029614	-4.103828	101.268469	-0.102892	-0.207811	-0.045307	85.692678	1.882091	0.497443	16.613504	1.068160	-22.616729	-35.714898	38.943199	8.125992	50.533477	33.705925	24.563333	4.598966	48.462008	30.210639	15.134639	-4.418434	61.780034	40.132828	9.318405	-9.238265	60.109698	40.291519
-1.295000	3.029614	-4.103828	101.268469	-0.102892	-0.207803	-0.045307	85.707963	1.887354	0.512429	16.608421	1.066473	-22.612839	-35.707015	38.921113	8.126796	50.519954	33.704244	24.537294	4.599176	48.500210	30.242404	15.111363	-4.410929	61.796377	40.150544	9.323497	-9.244286	60.082353	40.278056
-1.285000	3.029614	-4.103828	101.268469	-0.102893	-0.207793	-0.045309	85.719943	1.892395	0.528281	16.600625	1.055982	-22.613626	-35.700036	38.902116	8.126385	50.507266	33.703388	24.512812	4.597594	48.527895	30.267717	15.088883	-4.404806	61.814182	40.169282	9.313515	-9.242608	60.063670	40.271989
-1.275000	3.029614	-4.103828	101.268469	-0.102897	-0.207786	-0.045311	85.724717	1.895345	0.541706	16.586822	1.033722	-22.618239	-35.694608	38.890384	8.122109	50.496173	33.701991	24.491971	4.595342	48.542225	30.283809	15.067940	-4.400698	61.832626	40.187653	9.301291	-9.240122	60.059732	40.273925
-1.265000	3.029614	-4.103828	101.268469	-0.102902	-0.207787	-0.045315	85.722023	1.895605	0.549005	16.566682	1.000067	-22.624178	-35.690758	38.887369	8.113101	50.487609	33.699252	24.477622	4.593357	48.546001	30.291267	15.050516	-4.400067	61.853101	40.205225	9.299318	-9.242207	60.072103	40.282066
-1.255000	3.029614	-4.103828	101.268469	-0.102907	-0.207796	-0.045318	85.715324	1.894045	0.548691	16.543446	0.957651	-22.628467	-35.687919	38.891252	8.101062	50.482031	33.695021	24.471981	4.592058	48.544983	30.292913	15.039098	-4.404259	61.877429	40.221943	9.314015	-9.250189	60.097570	40.293113
-1.245000	3.029614	-4.103828	101.268469	-0.102909	-0.207808	-0.045320	85.710265	1.892274	0.542992	16.522646	0.910340	-22.628558	-35.684921	38.898320	8.089411	50.479288	33.689714	24.475367	4.591293	48.544312	30.291998	15.035774	-4.413493	61.905764	40.237344	9.342978	-9.260775	60.129021	40.303287
-1.235000	3.029614	-4.103828	101.268469	-0.102910	-0.207817	-0.045319	85.712688	1.891970	0.537112	16.509350	0.861796	-22.622908	-35.680093	38.905368	8.081388	50.478732	33.683948	24.486073	4.590411	48.546017	30.290620	15.041465	-4.426490	61.935529	40.250209	9.376090	-9.267504	60.157231	40.309183
-1.225000	3.029614	-4.103828	101.268469	-0.102909	-0.207813	-0.045316	85.727076	1.894873	0.536438	16.505439	0.814127	-22.611397	-35.671705	38.911351	8.078409	50.479447	33.678153	24.501144	4.588464	48.548837	30.289178	15.055217	-4.440885	61.961980	40.258923	9.400065	-9.263595	60.173479	40.308480
-1.215000	3.029614	-4.103828	101.268469	-0.102907	-0.207796	-0.045311	85.755486	1.903145	0.543169	16.508675	0.767706	-22.595514	-35.658709	38.917399	8.079578	50.480679	33.672532	24.517379	4.584518	48.550175	30.287043	15.073687	-4.453943	61.980121	40.262404	9.404367	-9.244848	60.172575	40.300611
-1.205000	3.029614	-4.103828	101.268469	-0.102907	-0.207767	-0.045304	85.796851	1.919286	0.554492	16.514165	0.722271	-22.578013	-35.641369	38.925606	8.082299	50.482155	33.667247	24.532284	4.577989	48.548540	30.283708	15.091465	-4.463145	61.986902	40.260965	9.385519	-9.211228	60.155123	40.287184
